<svg
  t="1702739639182"
  class="icon"
  viewBox="0 0 1025 1024"
  p-id="1100"
  width="200"
  height="200"
>
  <path
    d="M0 512a512.988417 512 0 1 0 1025.976834 0 512.988417 512 0 1 0-1025.976834 0Z"
    fill="#FE9F7B"
    p-id="1101"
  ></path>
  <path
    d="M1024 563.397683c-15.769205 163.110548-108.46295 303.784031-241.450502 385.482626-8.792958-29.411336-13.561081-60.928-13.561081-93.707861 0-160.246116 113.952618-290.321792 255.011583-291.774765z"
    fill="#FFFFFF"
    opacity=".3"
    p-id="1102"
  ></path>
  <path
    d="M338.03861 31.629344c-26.420386 134.399012-139.942054 228.015938-260.942085 211.639845C137.374147 146.285714 229.122965 70.962409 338.03861 31.629344z"
    fill="#FFFFFF"
    fill-opacity=".4"
    p-id="1103"
  ></path>
  <path
    d="M732.019645 313.881699a20.687568 20.687568 0 0 0-20.327784-20.394996l-169.286178-2.888155a20.499768 20.499768 0 0 0-8.110949 1.486579 20.511629 20.511629 0 0 0-6.865545 4.566487l-228.798764 228.794811A20.695475 20.695475 0 0 0 292.571429 540.071042a20.683614 20.683614 0 0 0 6.058996 14.626595l171.599073 171.597097a20.614425 20.614425 0 0 0 14.624618 6.057019c5.291985 0 10.585946-2.018347 14.622641-6.057019l228.800741-228.794811a20.653961 20.653961 0 0 0 6.053066-14.907305l-2.310919-168.710919z m-93.601112 113.998085c0 22.84627-18.520958 41.365251-41.365251 41.365251-22.848247 0-41.365251-18.518981-41.365251-41.365251 0-22.842317 18.517004-41.365251 41.365251-41.365251 22.84627 0 41.365251 18.520958 41.365251 41.365251z"
    fill="#FFFFFF"
    p-id="1104"
  ></path>
</svg>